<?xml version="1.0" encoding="UTF-8" standalone="no"?>
<!DOCTYPE svg PUBLIC "-//W3C//DTD SVG 1.1//EN"
 "http://www.w3.org/Graphics/SVG/1.1/DTD/svg11.dtd">
<!-- Generated by graphviz version 2.49.3 (0)
 -->
<!-- Title: G Pages: 1 -->
<svg width="192pt" height="518pt"
 viewBox="0.00 0.00 192.00 518.00" xmlns="http://www.w3.org/2000/svg" xmlns:xlink="http://www.w3.org/1999/xlink">
<g id="graph0" class="graph" transform="scale(1 1) rotate(0) translate(4 514)">
<title>G</title>
<polygon fill="white" stroke="transparent" points="-4,4 -4,-514 188,-514 188,4 -4,4"/>
<g id="clust1" class="cluster">
<title>cluster_server</title>
<polygon fill="none" stroke="black" points="8,-64 8,-502 84,-502 84,-64 8,-64"/>
<text text-anchor="middle" x="46" y="-486.8" font-family="Times,serif" font-size="14.00">server</text>
</g>
<g id="clust2" class="cluster">
<title>cluster_client</title>
<polygon fill="none" stroke="black" points="92,-64 92,-355 176,-355 176,-64 92,-64"/>
<text text-anchor="middle" x="134" y="-339.8" font-family="Times,serif" font-size="14.00">client</text>
</g>
<!-- socket() -->
<g id="node1" class="node">
<title>socket()</title>
<polygon fill="none" stroke="black" points="76,-471 16,-471 16,-435 76,-435 76,-471"/>
<text text-anchor="middle" x="46" y="-449.3" font-family="Times,serif" font-size="14.00">socket()</text>
</g>
<!-- bind() -->
<g id="node2" class="node">
<title>bind()</title>
<polygon fill="none" stroke="black" points="73,-399 19,-399 19,-363 73,-363 73,-399"/>
<text text-anchor="middle" x="46" y="-377.3" font-family="Times,serif" font-size="14.00">bind()</text>
</g>
<!-- socket()&#45;&gt;bind() -->
<g id="edge1" class="edge">
<title>socket()&#45;&gt;bind()</title>
<path fill="none" stroke="black" d="M46,-434.7C46,-426.98 46,-417.71 46,-409.11"/>
<polygon fill="black" stroke="black" points="49.5,-409.1 46,-399.1 42.5,-409.1 49.5,-409.1"/>
</g>
<!-- listen() -->
<g id="node3" class="node">
<title>listen()</title>
<polygon fill="none" stroke="black" points="73.5,-324 18.5,-324 18.5,-288 73.5,-288 73.5,-324"/>
<text text-anchor="middle" x="46" y="-302.3" font-family="Times,serif" font-size="14.00">listen()</text>
</g>
<!-- bind()&#45;&gt;listen() -->
<g id="edge2" class="edge">
<title>bind()&#45;&gt;listen()</title>
<path fill="none" stroke="black" d="M46,-362.7C46,-354.25 46,-343.87 46,-334.37"/>
<polygon fill="black" stroke="black" points="49.5,-334.18 46,-324.18 42.5,-334.18 49.5,-334.18"/>
</g>
<!-- accept() -->
<g id="node4" class="node">
<title>accept()</title>
<polygon fill="none" stroke="black" points="76,-252 16,-252 16,-216 76,-216 76,-252"/>
<text text-anchor="middle" x="46" y="-230.3" font-family="Times,serif" font-size="14.00">accept()</text>
</g>
<!-- listen()&#45;&gt;accept() -->
<g id="edge3" class="edge">
<title>listen()&#45;&gt;accept()</title>
<path fill="none" stroke="black" d="M46,-287.7C46,-279.98 46,-270.71 46,-262.11"/>
<polygon fill="black" stroke="black" points="49.5,-262.1 46,-252.1 42.5,-262.1 49.5,-262.1"/>
</g>
<!-- read() -->
<g id="node5" class="node">
<title>read()</title>
<polygon fill="none" stroke="black" points="73,-180 19,-180 19,-144 73,-144 73,-180"/>
<text text-anchor="middle" x="46" y="-158.3" font-family="Times,serif" font-size="14.00">read()</text>
</g>
<!-- accept()&#45;&gt;read() -->
<g id="edge4" class="edge">
<title>accept()&#45;&gt;read()</title>
<path fill="none" stroke="black" d="M46,-215.7C46,-207.98 46,-198.71 46,-190.11"/>
<polygon fill="black" stroke="black" points="49.5,-190.1 46,-180.1 42.5,-190.1 49.5,-190.1"/>
</g>
<!-- write() -->
<g id="node6" class="node">
<title>write()</title>
<polygon fill="none" stroke="black" points="73,-108 19,-108 19,-72 73,-72 73,-108"/>
<text text-anchor="middle" x="46" y="-86.3" font-family="Times,serif" font-size="14.00">write()</text>
</g>
<!-- read()&#45;&gt;write() -->
<g id="edge5" class="edge">
<title>read()&#45;&gt;write()</title>
<path fill="none" stroke="black" d="M46,-143.7C46,-135.98 46,-126.71 46,-118.11"/>
<polygon fill="black" stroke="black" points="49.5,-118.1 46,-108.1 42.5,-118.1 49.5,-118.1"/>
</g>
<!-- close() -->
<g id="node7" class="node">
<title>close()</title>
<polygon fill="none" stroke="black" points="73,-36 19,-36 19,0 73,0 73,-36"/>
<text text-anchor="middle" x="46" y="-14.3" font-family="Times,serif" font-size="14.00">close()</text>
</g>
<!-- write()&#45;&gt;close() -->
<g id="edge6" class="edge">
<title>write()&#45;&gt;close()</title>
<path fill="none" stroke="black" d="M46,-71.7C46,-63.98 46,-54.71 46,-46.11"/>
<polygon fill="black" stroke="black" points="49.5,-46.1 46,-36.1 42.5,-46.1 49.5,-46.1"/>
</g>
<!-- read -->
<g id="node11" class="node">
<title>read</title>
<polygon fill="none" stroke="black" points="161,-108 107,-108 107,-72 161,-72 161,-108"/>
<text text-anchor="middle" x="134" y="-86.3" font-family="Times,serif" font-size="14.00">read()</text>
</g>
<!-- write()&#45;&gt;read -->
<g id="edge12" class="edge">
<title>write()&#45;&gt;read</title>
<path fill="none" stroke="black" stroke-dasharray="5,2" d="M73.16,-90C81.07,-90 88.98,-90 96.89,-90"/>
<polygon fill="black" stroke="black" points="96.91,-93.5 106.91,-90 96.91,-86.5 96.91,-93.5"/>
</g>
<!-- socket -->
<g id="node8" class="node">
<title>socket</title>
<polygon fill="none" stroke="black" points="164,-324 104,-324 104,-288 164,-288 164,-324"/>
<text text-anchor="middle" x="134" y="-302.3" font-family="Times,serif" font-size="14.00">socket()</text>
</g>
<!-- connect() -->
<g id="node9" class="node">
<title>connect()</title>
<polygon fill="none" stroke="black" points="168,-252 100,-252 100,-216 168,-216 168,-252"/>
<text text-anchor="middle" x="134" y="-230.3" font-family="Times,serif" font-size="14.00">connect()</text>
</g>
<!-- socket&#45;&gt;connect() -->
<g id="edge7" class="edge">
<title>socket&#45;&gt;connect()</title>
<path fill="none" stroke="black" d="M134,-287.7C134,-279.98 134,-270.71 134,-262.11"/>
<polygon fill="black" stroke="black" points="137.5,-262.1 134,-252.1 130.5,-262.1 137.5,-262.1"/>
</g>
<!-- write -->
<g id="node10" class="node">
<title>write</title>
<polygon fill="none" stroke="black" points="161,-180 107,-180 107,-144 161,-144 161,-180"/>
<text text-anchor="middle" x="134" y="-158.3" font-family="Times,serif" font-size="14.00">write()</text>
</g>
<!-- connect()&#45;&gt;write -->
<g id="edge8" class="edge">
<title>connect()&#45;&gt;write</title>
<path fill="none" stroke="black" d="M134,-215.7C134,-207.98 134,-198.71 134,-190.11"/>
<polygon fill="black" stroke="black" points="137.5,-190.1 134,-180.1 130.5,-190.1 137.5,-190.1"/>
</g>
<!-- write&#45;&gt;read() -->
<g id="edge11" class="edge">
<title>write&#45;&gt;read()</title>
<path fill="none" stroke="black" stroke-dasharray="5,2" d="M106.91,-162C99,-162 91.09,-162 83.18,-162"/>
<polygon fill="black" stroke="black" points="83.16,-158.5 73.16,-162 83.16,-165.5 83.16,-158.5"/>
</g>
<!-- write&#45;&gt;read -->
<g id="edge9" class="edge">
<title>write&#45;&gt;read</title>
<path fill="none" stroke="black" d="M134,-143.7C134,-135.98 134,-126.71 134,-118.11"/>
<polygon fill="black" stroke="black" points="137.5,-118.1 134,-108.1 130.5,-118.1 137.5,-118.1"/>
</g>
<!-- close -->
<g id="node12" class="node">
<title>close</title>
<polygon fill="none" stroke="black" points="161,-36 107,-36 107,0 161,0 161,-36"/>
<text text-anchor="middle" x="134" y="-14.3" font-family="Times,serif" font-size="14.00">close()</text>
</g>
<!-- read&#45;&gt;close -->
<g id="edge10" class="edge">
<title>read&#45;&gt;close</title>
<path fill="none" stroke="black" d="M134,-71.7C134,-63.98 134,-54.71 134,-46.11"/>
<polygon fill="black" stroke="black" points="137.5,-46.1 134,-36.1 130.5,-46.1 137.5,-46.1"/>
</g>
</g>
</svg>
